<svg version="1.0" xmlns="http://www.w3.org/2000/svg" width="933.333" height="933.333" viewBox="0 0 700 700"><path d="M86.2 95.1c-21.7 2.8-41.3 12.6-57.2 28.8C15.8 137.2 6.9 153.3 2.4 172 .7 179 .6 189.7.2 343.5 0 458.2.2 510.4 1 517.2c2.7 23.7 11.8 42.7 28.5 59.3 13.8 13.9 30.7 23.1 49.5 27.2 8.1 1.7 20.6 1.8 272.5 1.8 248.5 0 264.4-.1 271.2-1.8 23.9-5.8 45-19.9 58.9-39.3 6.1-8.6 12.9-23.3 15.6-34l2.3-8.9v-343l-2.3-8.9c-9.7-38.2-40.8-67.5-78.9-74.1-7.5-1.3-41.4-1.5-267.2-1.4-142.2.1-261.4.5-264.9 1zm326.4 82.8c7.8 3.5 13.2 13.6 11.7 21.6-1.5 7.5-110.5 314.1-112.8 317.1-7.2 9.5-24 9.8-31.7.6-3.6-4.3-5.1-9.5-4.6-15.6.3-3.3 19.3-58.3 53.6-155.2 29.2-82.5 54-152.5 55.1-155.5 2.2-5.7 6.4-10.5 11.6-13.2 4.1-2.2 12.1-2.1 17.1.2zm-176 41.6c8.7 5.1 12.4 17.6 8 26.5-1 1.9-25.7 27.5-54.9 56.8L136.5 356l47.7 47.8c32.9 32.8 48.2 48.9 49.3 51.4 6.3 15.4-8.4 32.1-24.5 27.8-4.1-1-9.7-6.3-62.3-58.8-55.2-55.1-57.8-57.9-59.3-63-1.7-5.7-1.3-9.5 1.7-15.2 1.5-2.9 124.5-127 125.9-127 .3 0 2.3-.7 4.5-1.5 5.2-2 11.6-1.2 17.1 2zm257.7-.9c4.6 2.3 114.4 112 116.9 116.8 2.9 5.6 2.2 14.9-1.5 20.2-1.4 2.2-30 31.2-63.4 64.5-66.3 66.1-63.2 63.5-74.4 62.7-6.8-.5-11.9-3.9-15.6-10.4-2.7-4.6-3.1-12.7-.9-17.7.8-1.8 24.5-26.2 55-56.7l53.6-53.5-48.3-48.5c-51-51.2-50.7-50.8-50.7-59.6 0-3.5 4-12.3 6.6-14.5 5.8-5 16.3-6.5 22.7-3.3z"/></svg>